<svg xmlns="http://www.w3.org/2000/svg" version="1.1" xmlns:xlink="http://www.w3.org/1999/xlink" xmlns:svgjs="http://svgjs.com/svgjs" width="25" height="24"><svg width="25" height="24" viewBox="0 0 25 24" fill="none" xmlns="http://www.w3.org/2000/svg">
<path d="M2.13299 21.9326L2.13125 21.9336C1.78295 22.1236 1.57491 22.1772 1.38636 22.1772C1.06119 22.1772 0.868413 22.0842 0.756655 21.9718C0.644499 21.8589 0.550415 21.6624 0.550415 21.3296V5.55615C0.550415 5.2349 0.616857 4.98987 0.732657 4.79421C0.848499 4.59848 1.03337 4.41897 1.32263 4.25988L1.32266 4.25995L1.33052 4.25545L6.7926 1.12109V19.4143L2.13299 21.9326ZM9.39808 19.197V0.855256L14.8434 4.18417V22.2546L9.39808 19.197ZM23.1472 18.9378L17.4371 22.1819V3.97536L22.3446 1.249C22.3451 1.2487 22.3457 1.24839 22.3462 1.24809C22.6936 1.05882 22.9013 1.00537 23.0895 1.00537C23.4179 1.00537 23.61 1.09725 23.7203 1.20755C23.8305 1.31774 23.9254 1.51272 23.9254 1.85302V17.6382C23.9254 17.9594 23.859 18.2045 23.7432 18.4001C23.6274 18.5958 23.4425 18.7753 23.1533 18.9344L23.1532 18.9344L23.1472 18.9378Z" fill="#606060" stroke="#606060"></path>
</svg><style>@media (prefers-color-scheme: light) { :root { filter: none; } }
</style></svg>